<svg width="416" height="32" viewBox="0 0 416 32" fill="none" xmlns="http://www.w3.org/2000/svg">
<g clip-path="url(#clip0_1154_3045)">
<g clip-path="url(#clip1_1154_3045)">
<rect width="719.007" height="31.9997" fill="white"/>
<path d="M157.219 -0.0527344L134.714 32.1875H179.724L157.219 -0.0527344Z" fill="white"/>
<path d="M337.131 -0.0527344L314.625 32.1875H359.636L337.131 -0.0527344Z" fill="white"/>
<path d="M22.189 -0.0527344L44.6943 32.1875H-0.316284L22.189 -0.0527344Z" fill="#1A1A1A"/>
<path d="M202.23 -0.0527344L224.735 32.1875H179.724L202.23 -0.0527344Z" fill="#1A1A1A"/>
<path d="M382.141 -0.0527344L404.646 32.1875H359.636L382.141 -0.0527344Z" fill="#1A1A1A"/>
<path d="M179.727 32.1882L157.222 -0.0519562L202.232 -0.0519562L179.727 32.1882Z" fill="black"/>
<path d="M-1.90735e-06 31.9998L-22.2128 -0.0519562L22.7978 -0.0519562L-1.90735e-06 31.9998Z" fill="black"/>
<path d="M359.636 32.1882L337.131 -0.0519562L382.142 -0.0519562L359.636 32.1882Z" fill="black"/>
<path d="M89.7037 32.1882L67.1984 -0.0519562L112.209 -0.0519562L89.7037 32.1882Z" fill="#4C9D34"/>
<path d="M269.746 32.1882L247.24 -0.0519562L292.251 -0.0519562L269.746 32.1882Z" fill="#4C9D34"/>
<path d="M134.714 32.1882L157.22 -0.0519562L112.209 -0.0519562L134.714 32.1882Z" fill="#E5E5E5"/>
<path d="M314.626 32.1882L337.131 -0.0519562L292.121 -0.0519562L314.626 32.1882Z" fill="#E5E5E5"/>
<path d="M44.6938 32.1882L22.1886 -0.0519562L67.1991 -0.0519562L44.6938 32.1882Z" fill="#1A7547"/>
<path d="M224.736 32.1882L202.23 -0.0519562L247.241 -0.0519562L224.736 32.1882Z" fill="#1A7547"/>
<path d="M404.647 32.1882L382.142 -0.0519562L427.153 -0.0519562L404.647 32.1882Z" fill="#1A7547"/>
<path d="M112.211 -0.0527344L134.716 32.1875H89.7058L112.211 -0.0527344Z" fill="#55AE3A"/>
<path d="M292.252 -0.0527344L314.757 32.1875H269.746L292.252 -0.0527344Z" fill="#55AE3A"/>
<path d="M67.2 -0.0527344L89.7053 32.1875H44.6948L67.2 -0.0527344Z" fill="#006633"/>
<path d="M247.243 -0.0527344L269.748 32.1875H224.738L247.243 -0.0527344Z" fill="#006633"/>
<path d="M426.894 -0.0527344L449.4 32.1875H404.389L426.894 -0.0527344Z" fill="#006633"/>
<rect width="719.007" height="31.9997" fill="#006633" fill-opacity="0.8"/>
</g>
</g>
<path d="M121.571 0L102 32H295.651L314.708 0H121.571Z" fill="white"/>
<path d="M144.531 15.4501L142.981 13.6834L143.198 11.3417C143.239 10.9251 142.956 10.5417 142.556 10.4501L140.256 9.92506L139.056 7.90006C138.839 7.54172 138.398 7.39172 138.014 7.55839L135.848 8.50006L133.689 7.57506C133.306 7.40839 132.856 7.55839 132.648 7.91672L131.439 9.93339L129.148 10.4501C128.739 10.5417 128.456 10.9167 128.498 11.3417L128.714 13.6751L127.164 15.4501C126.889 15.7667 126.889 16.2334 127.164 16.5501L128.714 18.3167L128.498 20.6667C128.456 21.0834 128.739 21.4667 129.139 21.5584L131.439 22.0834L132.639 24.1001C132.856 24.4584 133.298 24.6084 133.689 24.4417L135.848 23.5001L138.006 24.4251C138.389 24.5917 138.839 24.4417 139.048 24.0834L140.248 22.0584L142.548 21.5334C142.956 21.4417 143.231 21.0584 143.189 20.6417L142.973 18.3001L144.523 16.5334C144.806 16.2334 144.806 15.7667 144.531 15.4501ZM136.681 20.1667H135.014V18.5001H136.681V20.1667ZM135.848 16.8334C135.389 16.8334 135.014 16.4584 135.014 16.0001V12.6667C135.014 12.2084 135.389 11.8334 135.848 11.8334C136.306 11.8334 136.681 12.2084 136.681 12.6667V16.0001C136.681 16.4584 136.306 16.8334 135.848 16.8334Z" fill="black"/>
<path d="M151.366 22V10.3636H152.775V20.75H158.184V22H151.366ZM163.844 22.1818C163.003 22.1818 162.277 21.9962 161.667 21.625C161.061 21.25 160.594 20.7273 160.264 20.0568C159.938 19.3826 159.775 18.5985 159.775 17.7045C159.775 16.8106 159.938 16.0227 160.264 15.3409C160.594 14.6553 161.052 14.1212 161.639 13.7386C162.23 13.3523 162.919 13.1591 163.707 13.1591C164.162 13.1591 164.611 13.2348 165.054 13.3864C165.497 13.5379 165.9 13.7841 166.264 14.125C166.628 14.4621 166.917 14.9091 167.133 15.4659C167.349 16.0227 167.457 16.7083 167.457 17.5227V18.0909H160.73V16.9318H166.094C166.094 16.4394 165.995 16 165.798 15.6136C165.605 15.2273 165.328 14.9223 164.969 14.6989C164.612 14.4754 164.192 14.3636 163.707 14.3636C163.173 14.3636 162.711 14.4962 162.321 14.7614C161.934 15.0227 161.637 15.3636 161.429 15.7841C161.22 16.2045 161.116 16.6553 161.116 17.1364V17.9091C161.116 18.5682 161.23 19.1269 161.457 19.5852C161.688 20.0398 162.008 20.3864 162.417 20.625C162.826 20.8598 163.302 20.9773 163.844 20.9773C164.196 20.9773 164.514 20.928 164.798 20.8295C165.086 20.7273 165.334 20.5758 165.542 20.375C165.751 20.1705 165.912 19.9167 166.025 19.6136L167.321 19.9773C167.184 20.4167 166.955 20.803 166.633 21.1364C166.311 21.4659 165.914 21.7235 165.44 21.9091C164.967 22.0909 164.434 22.1818 163.844 22.1818ZM173.02 25.4545C172.372 25.4545 171.815 25.3712 171.349 25.2045C170.883 25.0417 170.495 24.8258 170.184 24.5568C169.878 24.2917 169.633 24.0076 169.451 23.7045L170.52 22.9545C170.641 23.1136 170.794 23.2955 170.98 23.5C171.165 23.7083 171.419 23.8883 171.741 24.0398C172.067 24.1951 172.493 24.2727 173.02 24.2727C173.724 24.2727 174.306 24.1023 174.764 23.7614C175.222 23.4205 175.451 22.8864 175.451 22.1591V20.3864H175.338C175.239 20.5455 175.099 20.7424 174.917 20.9773C174.739 21.2083 174.482 21.4148 174.145 21.5966C173.811 21.7746 173.361 21.8636 172.792 21.8636C172.088 21.8636 171.455 21.697 170.895 21.3636C170.338 21.0303 169.897 20.5455 169.571 19.9091C169.249 19.2727 169.088 18.5 169.088 17.5909C169.088 16.697 169.245 15.9186 169.559 15.2557C169.874 14.589 170.311 14.0739 170.872 13.7102C171.433 13.3428 172.08 13.1591 172.815 13.1591C173.383 13.1591 173.834 13.2538 174.167 13.4432C174.505 13.6288 174.762 13.8409 174.94 14.0795C175.122 14.3144 175.262 14.5076 175.361 14.6591H175.497V13.2727H176.792V22.25C176.792 23 176.622 23.6098 176.281 24.0795C175.944 24.553 175.489 24.8996 174.917 25.1193C174.349 25.3428 173.717 25.4545 173.02 25.4545ZM172.974 20.6591C173.512 20.6591 173.967 20.536 174.338 20.2898C174.709 20.0436 174.991 19.6894 175.184 19.2273C175.378 18.7652 175.474 18.2121 175.474 17.5682C175.474 16.9394 175.38 16.3845 175.19 15.9034C175.001 15.4223 174.72 15.0455 174.349 14.7727C173.978 14.5 173.52 14.3636 172.974 14.3636C172.406 14.3636 171.933 14.5076 171.554 14.7955C171.179 15.0833 170.897 15.4697 170.707 15.9545C170.522 16.4394 170.429 16.9773 170.429 17.5682C170.429 18.1742 170.523 18.7102 170.713 19.1761C170.906 19.6383 171.19 20.0019 171.565 20.267C171.944 20.5284 172.414 20.6591 172.974 20.6591ZM183.133 13.2727V14.4091H178.429V13.2727H183.133ZM179.838 22V12.0682C179.838 11.5682 179.955 11.1515 180.19 10.8182C180.425 10.4848 180.73 10.2348 181.105 10.0682C181.48 9.90151 181.876 9.81818 182.292 9.81818C182.622 9.81818 182.891 9.8447 183.099 9.89773C183.308 9.95076 183.463 10 183.565 10.0455L183.179 11.2045C183.111 11.1818 183.016 11.1534 182.895 11.1193C182.777 11.0852 182.622 11.0682 182.429 11.0682C181.986 11.0682 181.665 11.1799 181.469 11.4034C181.275 11.6269 181.179 11.9545 181.179 12.3864V22H179.838ZM185.013 22V13.2727H186.308V14.5909H186.399C186.558 14.1591 186.846 13.8087 187.263 13.5398C187.679 13.2708 188.149 13.1364 188.672 13.1364C188.77 13.1364 188.893 13.1383 189.041 13.142C189.189 13.1458 189.3 13.1515 189.376 13.1591V14.5227C189.331 14.5114 189.227 14.4943 189.064 14.4716C188.905 14.4451 188.736 14.4318 188.558 14.4318C188.134 14.4318 187.755 14.5208 187.422 14.6989C187.092 14.8731 186.831 15.1155 186.638 15.4261C186.448 15.733 186.353 16.0833 186.353 16.4773V22H185.013ZM190.966 22V13.2727H192.307V22H190.966ZM191.647 11.8182C191.386 11.8182 191.161 11.7292 190.971 11.5511C190.786 11.3731 190.693 11.1591 190.693 10.9091C190.693 10.6591 190.786 10.4451 190.971 10.267C191.161 10.089 191.386 10 191.647 10C191.909 10 192.132 10.089 192.318 10.267C192.507 10.4451 192.602 10.6591 192.602 10.9091C192.602 11.1591 192.507 11.3731 192.318 11.5511C192.132 11.7292 191.909 11.8182 191.647 11.8182ZM200.944 15.2273L199.74 15.5682C199.664 15.3674 199.552 15.1723 199.405 14.983C199.261 14.7898 199.064 14.6307 198.814 14.5057C198.564 14.3807 198.244 14.3182 197.853 14.3182C197.319 14.3182 196.874 14.4413 196.518 14.6875C196.166 14.9299 195.99 15.2386 195.99 15.6136C195.99 15.947 196.111 16.2102 196.353 16.4034C196.596 16.5966 196.975 16.7576 197.49 16.8864L198.785 17.2045C199.566 17.3939 200.147 17.6837 200.53 18.0739C200.912 18.4602 201.103 18.9583 201.103 19.5682C201.103 20.0682 200.96 20.5152 200.672 20.9091C200.388 21.303 199.99 21.6136 199.478 21.8409C198.967 22.0682 198.372 22.1818 197.694 22.1818C196.804 22.1818 196.067 21.9886 195.484 21.6023C194.901 21.2159 194.531 20.6515 194.376 19.9091L195.649 19.5909C195.77 20.0606 195.999 20.4129 196.336 20.6477C196.677 20.8826 197.122 21 197.672 21C198.297 21 198.793 20.8674 199.16 20.6023C199.531 20.3333 199.717 20.0114 199.717 19.6364C199.717 19.3333 199.611 19.0795 199.399 18.875C199.187 18.6667 198.861 18.5114 198.422 18.4091L196.967 18.0682C196.168 17.8788 195.581 17.5852 195.206 17.1875C194.835 16.786 194.649 16.2841 194.649 15.6818C194.649 15.1894 194.787 14.7538 195.064 14.375C195.344 13.9962 195.725 13.6989 196.206 13.483C196.691 13.267 197.24 13.1591 197.853 13.1591C198.717 13.1591 199.395 13.3485 199.888 13.7273C200.384 14.1061 200.736 14.6061 200.944 15.2273ZM209.304 15.2273L208.099 15.5682C208.023 15.3674 207.912 15.1723 207.764 14.983C207.62 14.7898 207.423 14.6307 207.173 14.5057C206.923 14.3807 206.603 14.3182 206.213 14.3182C205.679 14.3182 205.234 14.4413 204.878 14.6875C204.525 14.9299 204.349 15.2386 204.349 15.6136C204.349 15.947 204.47 16.2102 204.713 16.4034C204.955 16.5966 205.334 16.7576 205.849 16.8864L207.145 17.2045C207.925 17.3939 208.506 17.6837 208.889 18.0739C209.272 18.4602 209.463 18.9583 209.463 19.5682C209.463 20.0682 209.319 20.5152 209.031 20.9091C208.747 21.303 208.349 21.6136 207.838 21.8409C207.326 22.0682 206.732 22.1818 206.054 22.1818C205.164 22.1818 204.427 21.9886 203.844 21.6023C203.26 21.2159 202.891 20.6515 202.736 19.9091L204.008 19.5909C204.13 20.0606 204.359 20.4129 204.696 20.6477C205.037 20.8826 205.482 21 206.031 21C206.656 21 207.152 20.8674 207.52 20.6023C207.891 20.3333 208.076 20.0114 208.076 19.6364C208.076 19.3333 207.97 19.0795 207.758 18.875C207.546 18.6667 207.22 18.5114 206.781 18.4091L205.326 18.0682C204.527 17.8788 203.94 17.5852 203.565 17.1875C203.194 16.786 203.008 16.2841 203.008 15.6818C203.008 15.1894 203.147 14.7538 203.423 14.375C203.703 13.9962 204.084 13.6989 204.565 13.483C205.05 13.267 205.599 13.1591 206.213 13.1591C207.076 13.1591 207.755 13.3485 208.247 13.7273C208.743 14.1061 209.095 14.6061 209.304 15.2273ZM215.14 22.1818C214.299 22.1818 213.574 21.9962 212.964 21.625C212.358 21.25 211.89 20.7273 211.561 20.0568C211.235 19.3826 211.072 18.5985 211.072 17.7045C211.072 16.8106 211.235 16.0227 211.561 15.3409C211.89 14.6553 212.349 14.1212 212.936 13.7386C213.527 13.3523 214.216 13.1591 215.004 13.1591C215.459 13.1591 215.907 13.2348 216.351 13.3864C216.794 13.5379 217.197 13.7841 217.561 14.125C217.924 14.4621 218.214 14.9091 218.43 15.4659C218.646 16.0227 218.754 16.7083 218.754 17.5227V18.0909H212.027V16.9318H217.39C217.39 16.4394 217.292 16 217.095 15.6136C216.902 15.2273 216.625 14.9223 216.265 14.6989C215.909 14.4754 215.489 14.3636 215.004 14.3636C214.47 14.3636 214.008 14.4962 213.618 14.7614C213.231 15.0227 212.934 15.3636 212.726 15.7841C212.517 16.2045 212.413 16.6553 212.413 17.1364V17.9091C212.413 18.5682 212.527 19.1269 212.754 19.5852C212.985 20.0398 213.305 20.3864 213.714 20.625C214.123 20.8598 214.599 20.9773 215.14 20.9773C215.493 20.9773 215.811 20.928 216.095 20.8295C216.383 20.7273 216.631 20.5758 216.839 20.375C217.048 20.1705 217.209 19.9167 217.322 19.6136L218.618 19.9773C218.481 20.4167 218.252 20.803 217.93 21.1364C217.608 21.4659 217.21 21.7235 216.737 21.9091C216.263 22.0909 215.731 22.1818 215.14 22.1818ZM220.976 22V10.3636H222.317V14.6591H222.43C222.529 14.5076 222.665 14.3144 222.839 14.0795C223.017 13.8409 223.271 13.6288 223.601 13.4432C223.934 13.2538 224.385 13.1591 224.953 13.1591C225.688 13.1591 226.335 13.3428 226.896 13.7102C227.457 14.0777 227.894 14.5985 228.209 15.2727C228.523 15.947 228.68 16.7424 228.68 17.6591C228.68 18.5833 228.523 19.3845 228.209 20.0625C227.894 20.7367 227.459 21.2595 226.902 21.6307C226.345 21.9981 225.703 22.1818 224.976 22.1818C224.415 22.1818 223.966 22.089 223.629 21.9034C223.292 21.714 223.032 21.5 222.851 21.2614C222.669 21.0189 222.529 20.8182 222.43 20.6591H222.271V22H220.976ZM222.294 17.6364C222.294 18.2955 222.39 18.8769 222.584 19.3807C222.777 19.8807 223.059 20.2727 223.43 20.5568C223.801 20.8371 224.256 20.9773 224.794 20.9773C225.354 20.9773 225.822 20.8295 226.197 20.5341C226.576 20.2348 226.86 19.8333 227.049 19.3295C227.243 18.822 227.339 18.2576 227.339 17.6364C227.339 17.0227 227.245 16.4697 227.055 15.9773C226.87 15.4811 226.587 15.089 226.209 14.8011C225.834 14.5095 225.362 14.3636 224.794 14.3636C224.248 14.3636 223.79 14.5019 223.419 14.7784C223.048 15.0511 222.767 15.4337 222.578 15.9261C222.388 16.4148 222.294 16.9848 222.294 17.6364ZM230.913 22V10.3636H232.254V14.6591H232.368C232.466 14.5076 232.603 14.3144 232.777 14.0795C232.955 13.8409 233.209 13.6288 233.538 13.4432C233.871 13.2538 234.322 13.1591 234.89 13.1591C235.625 13.1591 236.273 13.3428 236.834 13.7102C237.394 14.0777 237.832 14.5985 238.146 15.2727C238.46 15.947 238.618 16.7424 238.618 17.6591C238.618 18.5833 238.46 19.3845 238.146 20.0625C237.832 20.7367 237.396 21.2595 236.839 21.6307C236.282 21.9981 235.64 22.1818 234.913 22.1818C234.353 22.1818 233.904 22.089 233.567 21.9034C233.229 21.714 232.97 21.5 232.788 21.2614C232.606 21.0189 232.466 20.8182 232.368 20.6591H232.209V22H230.913ZM232.231 17.6364C232.231 18.2955 232.328 18.8769 232.521 19.3807C232.714 19.8807 232.996 20.2727 233.368 20.5568C233.739 20.8371 234.193 20.9773 234.731 20.9773C235.292 20.9773 235.76 20.8295 236.135 20.5341C236.513 20.2348 236.798 19.8333 236.987 19.3295C237.18 18.822 237.277 18.2576 237.277 17.6364C237.277 17.0227 237.182 16.4697 236.993 15.9773C236.807 15.4811 236.525 15.089 236.146 14.8011C235.771 14.5095 235.299 14.3636 234.731 14.3636C234.186 14.3636 233.728 14.5019 233.356 14.7784C232.985 15.0511 232.705 15.4337 232.515 15.9261C232.326 16.4148 232.231 16.9848 232.231 17.6364ZM248.714 22.1818C247.896 22.1818 247.192 21.9886 246.601 21.6023C246.01 21.2159 245.555 20.6837 245.237 20.0057C244.919 19.3277 244.76 18.553 244.76 17.6818C244.76 16.7955 244.923 16.0133 245.248 15.3352C245.578 14.6534 246.036 14.1212 246.623 13.7386C247.214 13.3523 247.904 13.1591 248.692 13.1591C249.305 13.1591 249.858 13.2727 250.351 13.5C250.843 13.7273 251.246 14.0455 251.561 14.4545C251.875 14.8636 252.07 15.3409 252.146 15.8864H250.805C250.703 15.4886 250.476 15.1364 250.123 14.8295C249.775 14.5189 249.305 14.3636 248.714 14.3636C248.192 14.3636 247.733 14.5 247.339 14.7727C246.949 15.0417 246.644 15.4223 246.424 15.9148C246.209 16.4034 246.101 16.9773 246.101 17.6364C246.101 18.3106 246.207 18.8977 246.419 19.3977C246.635 19.8977 246.938 20.286 247.328 20.5625C247.722 20.839 248.184 20.9773 248.714 20.9773C249.063 20.9773 249.379 20.9167 249.663 20.7955C249.947 20.6742 250.188 20.5 250.385 20.2727C250.582 20.0455 250.722 19.7727 250.805 19.4545H252.146C252.07 19.9697 251.883 20.4337 251.584 20.8466C251.288 21.2557 250.896 21.5814 250.407 21.8239C249.923 22.0625 249.358 22.1818 248.714 22.1818ZM254.106 22V13.2727H255.447V22H254.106ZM254.788 11.8182C254.527 11.8182 254.301 11.7292 254.112 11.5511C253.926 11.3731 253.834 11.1591 253.834 10.9091C253.834 10.6591 253.926 10.4451 254.112 10.267C254.301 10.089 254.527 10 254.788 10C255.049 10 255.273 10.089 255.459 10.267C255.648 10.4451 255.743 10.6591 255.743 10.9091C255.743 11.1591 255.648 11.3731 255.459 11.5511C255.273 11.7292 255.049 11.8182 254.788 11.8182ZM259.153 18.8182L259.13 17.1591H259.403L263.221 13.2727H264.88L260.812 17.3864H260.699L259.153 18.8182ZM257.903 22V10.3636H259.244V22H257.903ZM263.449 22L260.04 17.6818L260.994 16.75L265.153 22H263.449ZM267.856 18.8182L267.834 17.1591H268.106L271.924 13.2727H273.584L269.515 17.3864H269.402L267.856 18.8182ZM266.606 22V10.3636H267.947V22H266.606ZM272.152 22L268.743 17.6818L269.697 16.75L273.856 22H272.152ZM278.609 22.1818C277.768 22.1818 277.043 21.9962 276.433 21.625C275.827 21.25 275.359 20.7273 275.03 20.0568C274.704 19.3826 274.541 18.5985 274.541 17.7045C274.541 16.8106 274.704 16.0227 275.03 15.3409C275.359 14.6553 275.817 14.1212 276.405 13.7386C276.996 13.3523 277.685 13.1591 278.473 13.1591C278.927 13.1591 279.376 13.2348 279.819 13.3864C280.263 13.5379 280.666 13.7841 281.03 14.125C281.393 14.4621 281.683 14.9091 281.899 15.4659C282.115 16.0227 282.223 16.7083 282.223 17.5227V18.0909H275.496V16.9318H280.859C280.859 16.4394 280.761 16 280.564 15.6136C280.371 15.2273 280.094 14.9223 279.734 14.6989C279.378 14.4754 278.958 14.3636 278.473 14.3636C277.939 14.3636 277.477 14.4962 277.086 14.7614C276.7 15.0227 276.403 15.3636 276.194 15.7841C275.986 16.2045 275.882 16.6553 275.882 17.1364V17.9091C275.882 18.5682 275.996 19.1269 276.223 19.5852C276.454 20.0398 276.774 20.3864 277.183 20.625C277.592 20.8598 278.067 20.9773 278.609 20.9773C278.961 20.9773 279.28 20.928 279.564 20.8295C279.852 20.7273 280.1 20.5758 280.308 20.375C280.516 20.1705 280.677 19.9167 280.791 19.6136L282.086 19.9773C281.95 20.4167 281.721 20.803 281.399 21.1364C281.077 21.4659 280.679 21.7235 280.206 21.9091C279.732 22.0909 279.2 22.1818 278.609 22.1818ZM285.513 18.8182L285.49 17.1591H285.763L289.581 13.2727H291.24L287.172 17.3864H287.058L285.513 18.8182ZM284.263 22V10.3636H285.603V22H284.263ZM289.808 22L286.399 17.6818L287.353 16.75L291.513 22H289.808Z" fill="black"/>
<defs>
<clipPath id="clip0_1154_3045">
<rect width="416" height="32" fill="white"/>
</clipPath>
<clipPath id="clip1_1154_3045">
<rect width="719.007" height="31.9997" fill="white"/>
</clipPath>
</defs>
</svg>
