<svg width="1220" height="58" viewBox="0 0 1220 58" fill="none" xmlns="http://www.w3.org/2000/svg">
<g clip-path="url(#clip0_1154_3067)">
<rect width="1231" height="57.9148" transform="translate(-11)" fill="white"/>
<path d="M258.172 -0.095459L219.641 58.2545H296.703L258.172 -0.095459Z" fill="white"/>
<path d="M566.196 -0.095459L527.665 58.2545H604.727L566.196 -0.095459Z" fill="white"/>
<path d="M873.494 -0.095459L834.963 58.2545H912.025L873.494 -0.095459Z" fill="white"/>
<path d="M1180.52 -0.095459L1141.99 58.2545H1219.05L1180.52 -0.095459Z" fill="white"/>
<path d="M26.9895 -0.095459L65.5204 58.2545H-11.5414L26.9895 -0.095459Z" fill="#1A1A1A"/>
<path d="M335.234 -0.095459L373.765 58.2545H296.703L335.234 -0.095459Z" fill="#1A1A1A"/>
<path d="M643.258 -0.095459L681.788 58.2545H604.727L643.258 -0.095459Z" fill="#1A1A1A"/>
<path d="M950.28 -0.095459L988.811 58.2545H911.75L950.28 -0.095459Z" fill="#1A1A1A"/>
<path d="M296.707 58.2559L258.176 -0.0940895L335.238 -0.0940895L296.707 58.2559Z" fill="black"/>
<path d="M-11 57.9148L-49.03 -0.0940437L28.0317 -0.0940437L-11 57.9148Z" fill="black"/>
<path d="M604.727 58.2559L566.196 -0.0940895L643.258 -0.0940895L604.727 58.2559Z" fill="black"/>
<path d="M912.025 58.2559L873.495 -0.0940895L950.556 -0.0940895L912.025 58.2559Z" fill="black"/>
<path d="M1220 57.9148L1180.52 -0.0940437L1257.58 -0.0940437L1220 57.9148Z" fill="black"/>
<path d="M142.58 58.2559L104.049 -0.0940895L181.111 -0.0940895L142.58 58.2559Z" fill="#4C9D34"/>
<path d="M450.827 58.2559L412.296 -0.0940895L489.358 -0.0940895L450.827 58.2559Z" fill="#4C9D34"/>
<path d="M758.125 58.2559L719.594 -0.0940895L796.656 -0.0940895L758.125 58.2559Z" fill="#4C9D34"/>
<path d="M1065.15 58.2559L1026.62 -0.0940895L1103.68 -0.0940895L1065.15 58.2559Z" fill="#4C9D34"/>
<path d="M219.642 58.2559L258.173 -0.0940895L181.111 -0.0940895L219.642 58.2559Z" fill="#E5E5E5"/>
<path d="M527.666 58.2559L566.197 -0.0940895L489.135 -0.0940895L527.666 58.2559Z" fill="#E5E5E5"/>
<path d="M834.964 58.2559L873.495 -0.0940895L796.433 -0.0940895L834.964 58.2559Z" fill="#E5E5E5"/>
<path d="M1141.99 58.2559L1180.52 -0.0940895L1103.46 -0.0940895L1141.99 58.2559Z" fill="#E5E5E5"/>
<path d="M65.5197 58.2559L26.9888 -0.0940895L104.051 -0.0940895L65.5197 58.2559Z" fill="#1A7547"/>
<path d="M373.766 58.2559L335.235 -0.0940895L412.297 -0.0940895L373.766 58.2559Z" fill="#1A7547"/>
<path d="M681.79 58.2559L643.259 -0.0940895L720.321 -0.0940895L681.79 58.2559Z" fill="#1A7547"/>
<path d="M988.813 58.2559L950.282 -0.0940895L1027.34 -0.0940895L988.813 58.2559Z" fill="#1A7547"/>
<path d="M181.115 -0.095459L219.646 58.2545H142.584L181.115 -0.095459Z" fill="#55AE3A"/>
<path d="M489.359 -0.095459L527.89 58.2545H450.828L489.359 -0.095459Z" fill="#55AE3A"/>
<path d="M796.658 -0.095459L835.188 58.2545H758.127L796.658 -0.095459Z" fill="#55AE3A"/>
<path d="M1103.68 -0.095459L1142.21 58.2545H1065.15L1103.68 -0.095459Z" fill="#55AE3A"/>
<path d="M104.052 -0.095459L142.583 58.2545H65.5212L104.052 -0.095459Z" fill="#006633"/>
<path d="M412.301 -0.095459L450.831 58.2545H373.77L412.301 -0.095459Z" fill="#006633"/>
<path d="M719.878 -0.095459L758.409 58.2545H681.347L719.878 -0.095459Z" fill="#006633"/>
<path d="M1026.9 -0.095459L1065.43 58.2545H988.37L1026.9 -0.095459Z" fill="#006633"/>
<rect x="-11" width="1231" height="57.9148" fill="#006633" fill-opacity="0.8"/>
</g>
<defs>
<clipPath id="clip0_1154_3067">
<rect width="1231" height="57.9148" fill="white" transform="translate(-11)"/>
</clipPath>
</defs>
</svg>
