<svg width="195" height="30" viewBox="0 0 195 30" fill="none" xmlns="http://www.w3.org/2000/svg">
<path fill-rule="evenodd" clip-rule="evenodd" d="M0.0136719 3.42847H9.99377H10.2436V3.43185C14.641 3.55104 18.1653 6.8056 18.1653 10.803C18.1653 12.5003 17.5299 14.0637 16.4621 15.31C19.3353 16.4529 21.3411 19.0458 21.3411 22.0615C21.3411 25.9855 17.9451 29.1936 13.6608 29.4229V29.4364H0V23.807H5.2283L5.22804 23.806H13.3563H13.419V23.8049C14.2512 23.7752 14.9158 23.157 14.9158 22.3987C14.9158 21.6403 14.2512 21.0221 13.419 20.9924V20.9913H13.3563H10.2307V20.993H1.37305V11.9015H1.9123C1.9107 11.8918 1.90912 11.8821 1.90756 11.8724H10.2108H10.2118C11.073 11.8724 11.7712 11.2423 11.7712 10.465C11.7712 9.69559 11.087 9.07035 10.2377 9.05788H0.0136719V3.42847Z" fill="white"/>
<path d="M1.23307 10.3237L12.9289 16.4177L1.23307 22.5117L1.23307 10.3237Z" fill="#55AE3A"/>
<path d="M29.7521 6.17448C29.1196 6.17448 28.5853 5.96682 28.1491 5.5515C27.7348 5.13617 27.5276 4.64174 27.5276 4.0682V3.20789C27.5276 2.61458 27.7348 2.12015 28.1491 1.7246C28.5635 1.30928 29.0978 1.10162 29.7521 1.10162H30.7335C31.3877 1.10162 31.9221 1.30928 32.3364 1.7246C32.7508 2.12015 32.958 2.61458 32.958 3.20789V4.0682C32.958 4.64174 32.7508 5.13617 32.3364 5.5515C31.9221 5.96682 31.3877 6.17448 30.7335 6.17448H29.7521ZM37.0471 6.17448C36.4147 6.17448 35.8803 5.96682 35.4442 5.5515C35.0298 5.13617 34.8226 4.64174 34.8226 4.0682V3.20789C34.8226 2.61458 35.0298 2.12015 35.4442 1.7246C35.8585 1.30928 36.3929 1.10162 37.0471 1.10162H38.0285C38.6828 1.10162 39.2171 1.30928 39.6315 1.7246C40.0458 2.12015 40.253 2.61458 40.253 3.20789V4.0682C40.253 4.64174 40.0458 5.13617 39.6315 5.5515C39.2171 5.96682 38.6828 6.17448 38.0285 6.17448H37.0471ZM33.8412 28.6315C31.704 28.6315 29.8284 28.325 28.2146 27.7119C26.6007 27.079 25.3467 26.1791 24.4526 25.0123C23.5584 23.8257 23.1113 22.4215 23.1113 20.7997V9.70471C23.1113 9.13118 23.2531 8.70596 23.5366 8.42908C23.8419 8.1522 24.3544 8.01376 25.0741 8.01376H28.967C29.7085 8.01376 30.221 8.1522 30.5045 8.42908C30.8098 8.68619 30.9625 9.1114 30.9625 9.70471V20.8887C30.9625 21.8183 31.2133 22.5105 31.7149 22.9653C32.2383 23.4202 32.9471 23.6477 33.8412 23.6477C34.7354 23.6477 35.4333 23.4202 35.9349 22.9653C36.4583 22.5105 36.72 21.8183 36.72 20.8887V9.70471C36.72 9.13118 36.8617 8.70596 37.1453 8.42908C37.4506 8.1522 37.9631 8.01376 38.6828 8.01376H42.5756C43.3171 8.01376 43.8296 8.1522 44.1131 8.42908C44.4185 8.68619 44.5711 9.1114 44.5711 9.70471V20.7997C44.5711 22.4215 44.1241 23.8257 43.2299 25.0123C42.3357 26.1791 41.0817 27.079 39.4679 27.7119C37.854 28.325 35.9785 28.6315 33.8412 28.6315Z" fill="white"/>
<path d="M47.673 28.1865C46.9533 28.1865 46.4408 28.0481 46.1355 27.7712C45.852 27.4943 45.7102 27.0691 45.7102 26.4956V9.67505C45.7102 9.10151 45.852 8.68619 46.1355 8.42908C46.4408 8.1522 46.9642 8.01376 47.7057 8.01376H50.8135C51.2714 8.01376 51.6204 8.07309 51.8603 8.19176C52.122 8.29064 52.3728 8.4983 52.6127 8.81474L58.5338 16.7948V9.70471C58.5338 9.13118 58.6755 8.70596 58.959 8.42908C59.2643 8.1522 59.7769 8.01376 60.4965 8.01376H64.3894C65.1309 8.01376 65.6434 8.1522 65.9269 8.42908C66.2322 8.68619 66.3849 9.1114 66.3849 9.70471V26.5252C66.3849 27.0988 66.2322 27.524 65.9269 27.8009C65.6434 28.058 65.1309 28.1865 64.3894 28.1865H61.2817C60.8237 28.1865 60.4638 28.1371 60.2021 28.0382C59.9622 27.9195 59.7223 27.702 59.4824 27.3856L53.5614 19.4054V26.5252C53.5614 27.0988 53.4087 27.524 53.1034 27.8009C52.8199 28.058 52.3074 28.1865 51.5659 28.1865H47.673Z" fill="white"/>
<path d="M75.8438 28.1865C75.1242 28.1865 74.6117 28.0481 74.3063 27.7712C74.0228 27.4943 73.8811 27.0691 73.8811 26.4956V13.057H69.1704C68.4725 13.057 67.9927 12.9284 67.731 12.6713C67.4911 12.3944 67.3712 11.9593 67.3712 11.366V9.70471C67.3712 9.1114 67.4911 8.68619 67.731 8.42908C67.9927 8.1522 68.4725 8.01376 69.1704 8.01376H86.4429C87.1408 8.01376 87.6097 8.1522 87.8496 8.42908C88.1113 8.68619 88.2421 9.1114 88.2421 9.70471V11.366C88.2421 11.9593 88.1113 12.3944 87.8496 12.6713C87.6097 12.9284 87.1408 13.057 86.4429 13.057H81.7322V26.4956C81.7322 27.0691 81.5795 27.4943 81.2742 27.7712C80.9907 28.0481 80.4782 28.1865 79.7367 28.1865H75.8438Z" fill="white"/>
<path d="M91.184 28.1865C90.4643 28.1865 89.9518 28.0481 89.6465 27.7712C89.363 27.4943 89.2212 27.0691 89.2212 26.4956V9.70471C89.2212 9.13118 89.363 8.70596 89.6465 8.42908C89.9518 8.1522 90.4643 8.01376 91.184 8.01376H104.727C105.425 8.01376 105.894 8.1522 106.134 8.42908C106.396 8.68619 106.526 9.1114 106.526 9.70471V11.366C106.526 11.9593 106.396 12.3944 106.134 12.6713C105.894 12.9284 105.425 13.057 104.727 13.057H97.0724V15.6082H101.783C102.481 15.6082 102.95 15.7467 103.19 16.0235C103.451 16.2806 103.582 16.7059 103.582 17.2992V18.9011C103.582 19.4944 103.451 19.9295 103.19 20.2064C102.95 20.4635 102.481 20.5921 101.783 20.5921H97.0724V23.1433H104.695C105.392 23.1433 105.861 23.2818 106.101 23.5587C106.363 23.8158 106.494 24.241 106.494 24.8343V26.4956C106.494 27.0889 106.363 27.524 106.101 27.8009C105.861 28.058 105.392 28.1865 104.695 28.1865H91.184Z" fill="white"/>
<path d="M115.17 28.1865C114.45 28.1865 113.938 28.0481 113.632 27.7712C113.349 27.4943 113.207 27.0691 113.207 26.4956V13.057H108.496C107.799 13.057 107.319 12.9284 107.057 12.6713C106.817 12.3944 106.697 11.9593 106.697 11.366V9.70471C106.697 9.1114 106.817 8.68619 107.057 8.42908C107.319 8.1522 107.799 8.01376 108.496 8.01376H125.769C126.467 8.01376 126.936 8.1522 127.176 8.42908C127.437 8.68619 127.568 9.1114 127.568 9.70471V11.366C127.568 11.9593 127.437 12.3944 127.176 12.6713C126.936 12.9284 126.467 13.057 125.769 13.057H121.058V26.4956C121.058 27.0691 120.906 27.4943 120.6 27.7712C120.317 28.0481 119.804 28.1865 119.063 28.1865H115.17Z" fill="white"/>
<path d="M133.716 6.41181C132.822 6.41181 132.375 6.13492 132.375 5.58116C132.375 5.40317 132.418 5.23506 132.506 5.07684L134.37 1.6356C134.545 1.29939 134.686 1.06206 134.795 0.923625C134.904 0.785184 135.068 0.676409 135.286 0.5973C135.526 0.518192 135.875 0.478638 136.333 0.478638H140.357C140.815 0.478638 141.185 0.557746 141.469 0.715963C141.752 0.854404 141.894 1.06207 141.894 1.33895C141.894 1.5565 141.785 1.80371 141.567 2.08059L138.983 5.2845C138.699 5.64049 138.481 5.88771 138.328 6.02615C138.176 6.14481 137.969 6.2437 137.707 6.32281C137.445 6.38214 137.064 6.41181 136.562 6.41181H133.716ZM142.319 6.41181C141.425 6.41181 140.978 6.13492 140.978 5.58116C140.978 5.40317 141.022 5.23506 141.109 5.07684L142.974 1.6356C143.148 1.29939 143.29 1.06206 143.399 0.923625C143.508 0.785184 143.672 0.676409 143.89 0.5973C144.13 0.518192 144.479 0.478638 144.937 0.478638H148.96C149.418 0.478638 149.789 0.557746 150.072 0.715963C150.356 0.854404 150.498 1.06207 150.498 1.33895C150.498 1.5565 150.389 1.80371 150.171 2.08059L147.586 5.2845C147.303 5.64049 147.085 5.88771 146.932 6.02615C146.779 6.14481 146.572 6.2437 146.31 6.32281C146.049 6.38214 145.667 6.41181 145.165 6.41181H142.319ZM139.735 28.6315C135.853 28.6315 132.909 27.7218 130.903 25.9023C128.896 24.063 127.893 21.4623 127.893 18.1001C127.893 14.738 128.896 12.1472 130.903 10.3277C132.909 8.48841 135.853 7.56877 139.735 7.56877C143.617 7.56877 146.561 8.48841 148.568 10.3277C150.574 12.1472 151.577 14.738 151.577 18.1001C151.577 21.4623 150.574 24.063 148.568 25.9023C146.561 27.7218 143.617 28.6315 139.735 28.6315ZM139.735 23.6477C141.153 23.6477 142.178 23.1928 142.81 22.283C143.443 21.3535 143.759 19.9592 143.759 18.1001C143.759 16.2213 143.443 14.827 142.81 13.9173C142.178 13.0075 141.153 12.5526 139.735 12.5526C138.318 12.5526 137.293 13.0075 136.66 13.9173C136.028 14.827 135.711 16.2213 135.711 18.1001C135.711 19.9592 136.028 21.3535 136.66 22.283C137.293 23.1928 138.318 23.6477 139.735 23.6477Z" fill="white"/>
<path d="M153.517 28.1865C153.177 28.1865 152.896 28.0797 152.673 27.8661C152.464 27.6407 152.359 27.3796 152.359 27.083V26.638C152.359 26.3176 152.464 26.0565 152.673 25.8548C152.896 25.6412 153.177 25.5344 153.517 25.5344H154.028C154.368 25.5344 154.643 25.6412 154.852 25.8548C155.074 26.0565 155.186 26.3176 155.186 26.638V27.083C155.186 27.3915 155.074 27.6525 154.852 27.8661C154.643 28.0797 154.368 28.1865 154.028 28.1865H153.517Z" fill="white"/>
<path d="M161.601 28.4535C159.716 28.4535 158.27 28.0679 157.263 27.2966C156.268 26.5134 155.771 25.3861 155.771 23.9147C155.771 23.0009 156.007 22.2059 156.478 21.5295C156.949 20.8413 157.629 20.3132 158.519 19.9454C159.409 19.5656 160.469 19.3758 161.699 19.3758C162.615 19.3758 163.393 19.4588 164.035 19.625C164.676 19.7911 165.245 20.0284 165.742 20.337C165.899 20.4437 165.978 20.5624 165.978 20.6929C165.978 20.7997 165.919 20.9481 165.801 21.1379L164.859 22.6153C164.754 22.7933 164.623 22.8823 164.466 22.8823C164.349 22.8823 164.205 22.8289 164.035 22.7221C163.72 22.5322 163.426 22.3958 163.151 22.3127C162.89 22.2296 162.556 22.1881 162.15 22.1881C161.653 22.1881 161.247 22.3424 160.933 22.6509C160.619 22.9594 160.462 23.3807 160.462 23.9147C160.462 24.4605 160.619 24.8818 160.933 25.1784C161.26 25.4751 161.692 25.6234 162.229 25.6234C162.582 25.6234 162.909 25.5759 163.21 25.481C163.511 25.3861 163.832 25.2496 164.172 25.0716C164.368 24.9648 164.519 24.9114 164.623 24.9114C164.767 24.9114 164.892 25.0004 164.996 25.1784L166.037 26.7982C166.115 26.9168 166.154 27.0177 166.154 27.1008C166.154 27.2432 166.063 27.3618 165.88 27.4568C165.278 27.789 164.643 28.0382 163.976 28.2043C163.321 28.3705 162.53 28.4535 161.601 28.4535Z" fill="white"/>
<path d="M172.603 28.4535C171.387 28.4535 170.333 28.2696 169.443 27.9017C168.567 27.522 167.899 26.994 167.441 26.3176C166.983 25.6293 166.754 24.8284 166.754 23.9147C166.754 22.9891 166.983 22.1881 167.441 21.5117C167.899 20.8235 168.567 20.2954 169.443 19.9276C170.333 19.5597 171.387 19.3758 172.603 19.3758C174.448 19.3758 175.888 19.7852 176.922 20.6039C177.955 21.4109 178.472 22.5144 178.472 23.9147C178.472 24.8284 178.237 25.6293 177.766 26.3176C177.308 26.994 176.64 27.522 175.764 27.9017C174.887 28.2696 173.833 28.4535 172.603 28.4535ZM172.603 25.4632C173.389 25.4632 173.781 24.947 173.781 23.9147C173.781 23.3688 173.676 22.9772 173.467 22.7399C173.271 22.5026 172.983 22.3839 172.603 22.3839C172.224 22.3839 171.936 22.5026 171.74 22.7399C171.544 22.9772 171.445 23.3688 171.445 23.9147C171.445 24.947 171.831 25.4632 172.603 25.4632Z" fill="white"/>
<path d="M180.65 28.1865C180.218 28.1865 179.911 28.1035 179.727 27.9373C179.544 27.7712 179.453 27.5161 179.453 27.172V20.2302C179.453 19.9928 179.498 19.8386 179.59 19.7674C179.695 19.6843 179.898 19.6428 180.199 19.6428H182.475C182.645 19.6428 182.77 19.6606 182.848 19.6962C182.94 19.7199 182.999 19.7852 183.025 19.892L183.143 20.337C183.522 20.0403 183.928 19.8089 184.36 19.6428C184.805 19.4648 185.315 19.3758 185.891 19.3758C186.427 19.3758 186.879 19.4529 187.245 19.6072C187.624 19.7496 187.971 19.981 188.285 20.3014C188.652 20.0047 189.051 19.7792 189.483 19.625C189.914 19.4588 190.451 19.3758 191.092 19.3758C192.139 19.3758 192.944 19.6487 193.506 20.1946C194.082 20.7285 194.37 21.5414 194.37 22.6331V27.172C194.37 27.5161 194.278 27.7712 194.095 27.9373C193.925 28.1035 193.624 28.1865 193.192 28.1865H191.249C190.817 28.1865 190.51 28.1035 190.327 27.9373C190.143 27.7712 190.052 27.5161 190.052 27.172V22.9001C190.052 22.4373 189.882 22.2059 189.541 22.2059C189.345 22.2059 189.201 22.2652 189.11 22.3839C189.018 22.4907 188.972 22.6628 188.972 22.9001V27.172C188.972 27.5161 188.881 27.7712 188.697 27.9373C188.527 28.1035 188.226 28.1865 187.795 28.1865H186.048C185.616 28.1865 185.308 28.1035 185.125 27.9373C184.942 27.7712 184.85 27.5161 184.85 27.172V22.9001C184.85 22.4373 184.68 22.2059 184.34 22.2059C184.144 22.2059 184 22.2652 183.908 22.3839C183.817 22.4907 183.771 22.6628 183.771 22.9001V27.172C183.771 27.5161 183.679 27.7712 183.496 27.9373C183.326 28.1035 183.025 28.1865 182.593 28.1865H180.65Z" fill="white"/>
</svg>
