<svg width="416" height="32" viewBox="0 0 416 32" fill="none" xmlns="http://www.w3.org/2000/svg">
<g clip-path="url(#clip0_1154_3242)">
<g clip-path="url(#clip1_1154_3242)">
<rect width="719.007" height="31.9997" fill="white"/>
<path d="M157.219 -0.0527344L134.714 32.1875H179.724L157.219 -0.0527344Z" fill="white"/>
<path d="M337.131 -0.0527344L314.625 32.1875H359.636L337.131 -0.0527344Z" fill="white"/>
<path d="M22.189 -0.0527344L44.6943 32.1875H-0.316284L22.189 -0.0527344Z" fill="#1A1A1A"/>
<path d="M202.23 -0.0527344L224.735 32.1875H179.724L202.23 -0.0527344Z" fill="#1A1A1A"/>
<path d="M382.141 -0.0527344L404.646 32.1875H359.636L382.141 -0.0527344Z" fill="#1A1A1A"/>
<path d="M179.727 32.1882L157.222 -0.0519562L202.232 -0.0519562L179.727 32.1882Z" fill="black"/>
<path d="M-1.90735e-06 31.9998L-22.2128 -0.0519562L22.7978 -0.0519562L-1.90735e-06 31.9998Z" fill="black"/>
<path d="M359.636 32.1882L337.131 -0.0519562L382.142 -0.0519562L359.636 32.1882Z" fill="black"/>
<path d="M89.7037 32.1882L67.1984 -0.0519562L112.209 -0.0519562L89.7037 32.1882Z" fill="#4C9D34"/>
<path d="M269.746 32.1882L247.24 -0.0519562L292.251 -0.0519562L269.746 32.1882Z" fill="#4C9D34"/>
<path d="M134.714 32.1882L157.22 -0.0519562L112.209 -0.0519562L134.714 32.1882Z" fill="#E5E5E5"/>
<path d="M314.626 32.1882L337.131 -0.0519562L292.121 -0.0519562L314.626 32.1882Z" fill="#E5E5E5"/>
<path d="M44.6938 32.1882L22.1886 -0.0519562L67.1991 -0.0519562L44.6938 32.1882Z" fill="#1A7547"/>
<path d="M224.736 32.1882L202.23 -0.0519562L247.241 -0.0519562L224.736 32.1882Z" fill="#1A7547"/>
<path d="M404.647 32.1882L382.142 -0.0519562L427.153 -0.0519562L404.647 32.1882Z" fill="#1A7547"/>
<path d="M112.211 -0.0527344L134.716 32.1875H89.7058L112.211 -0.0527344Z" fill="#55AE3A"/>
<path d="M292.252 -0.0527344L314.757 32.1875H269.746L292.252 -0.0527344Z" fill="#55AE3A"/>
<path d="M67.2 -0.0527344L89.7053 32.1875H44.6948L67.2 -0.0527344Z" fill="#006633"/>
<path d="M247.243 -0.0527344L269.748 32.1875H224.738L247.243 -0.0527344Z" fill="#006633"/>
<path d="M426.894 -0.0527344L449.4 32.1875H404.389L426.894 -0.0527344Z" fill="#006633"/>
<rect width="719.007" height="31.9997" fill="#006633" fill-opacity="0.8"/>
</g>
</g>
<path d="M157.093 0L140 32H258.649L275.292 0H157.093Z" fill="white"/>
<path fill-rule="evenodd" clip-rule="evenodd" d="M176 8C176.265 8 176.52 8.10536 176.707 8.29289C176.895 8.48043 177 8.73478 177 9V10H178C178.265 10 178.52 10.1054 178.707 10.2929C178.895 10.4804 179 10.7348 179 11C179 11.2652 178.895 11.5196 178.707 11.7071C178.52 11.8946 178.265 12 178 12H177V13C177 13.2652 176.895 13.5196 176.707 13.7071C176.52 13.8946 176.265 14 176 14C175.735 14 175.48 13.8946 175.293 13.7071C175.105 13.5196 175 13.2652 175 13V12H174C173.735 12 173.48 11.8946 173.293 11.7071C173.105 11.5196 173 11.2652 173 11C173 10.7348 173.105 10.4804 173.293 10.2929C173.48 10.1054 173.735 10 174 10H175V9C175 8.73478 175.105 8.48043 175.293 8.29289C175.48 8.10536 175.735 8 176 8ZM176 18C176.265 18 176.52 18.1054 176.707 18.2929C176.895 18.4804 177 18.7348 177 19V20H178C178.265 20 178.52 20.1054 178.707 20.2929C178.895 20.4804 179 20.7348 179 21C179 21.2652 178.895 21.5196 178.707 21.7071C178.52 21.8946 178.265 22 178 22H177V23C177 23.2652 176.895 23.5196 176.707 23.7071C176.52 23.8946 176.265 24 176 24C175.735 24 175.48 23.8946 175.293 23.7071C175.105 23.5196 175 23.2652 175 23V22H174C173.735 22 173.48 21.8946 173.293 21.7071C173.105 21.5196 173 21.2652 173 21C173 20.7348 173.105 20.4804 173.293 20.2929C173.48 20.1054 173.735 20 174 20H175V19C175 18.7348 175.105 18.4804 175.293 18.2929C175.48 18.1054 175.735 18 176 18ZM183 8C183.221 7.99993 183.435 8.07286 183.61 8.20744C183.785 8.34201 183.911 8.53066 183.967 8.744L185.146 13.2L188.5 15.134C188.652 15.2218 188.778 15.348 188.866 15.5C188.954 15.652 189 15.8245 189 16C189 16.1755 188.954 16.348 188.866 16.5C188.778 16.652 188.652 16.7782 188.5 16.866L185.146 18.801L183.966 23.256C183.909 23.4691 183.784 23.6576 183.609 23.792C183.434 23.9264 183.22 23.9993 183 23.9993C182.779 23.9993 182.565 23.9264 182.39 23.792C182.215 23.6576 182.09 23.4691 182.033 23.256L180.854 18.8L177.5 16.866C177.348 16.7782 177.222 16.652 177.134 16.5C177.046 16.348 177 16.1755 177 16C177 15.8245 177.046 15.652 177.134 15.5C177.222 15.348 177.348 15.2218 177.5 15.134L180.854 13.199L182.034 8.744C182.09 8.53083 182.216 8.3423 182.39 8.20774C182.565 8.07318 182.779 8.00015 183 8Z" fill="black"/>
<path d="M197.308 22H195.831L200.104 10.3636H201.558L205.831 22H204.354L200.876 12.2045H200.786L197.308 22ZM197.854 17.4545H203.808V18.7045H197.854V17.4545ZM207.462 13.2727H208.803V22.6364C208.803 23.1742 208.71 23.6402 208.524 24.0341C208.342 24.428 208.066 24.733 207.695 24.9489C207.327 25.1648 206.863 25.2727 206.303 25.2727C206.257 25.2727 206.212 25.2727 206.166 25.2727C206.121 25.2727 206.075 25.2727 206.03 25.2727V24.0227C206.075 24.0227 206.117 24.0227 206.155 24.0227C206.193 24.0227 206.234 24.0227 206.28 24.0227C206.689 24.0227 206.988 23.9015 207.178 23.6591C207.367 23.4205 207.462 23.0795 207.462 22.6364V13.2727ZM208.121 11.8182C207.859 11.8182 207.634 11.7292 207.445 11.5511C207.259 11.3731 207.166 11.1591 207.166 10.9091C207.166 10.6591 207.259 10.4451 207.445 10.267C207.634 10.089 207.859 10 208.121 10C208.382 10 208.606 10.089 208.791 10.267C208.981 10.4451 209.075 10.6591 209.075 10.9091C209.075 11.1591 208.981 11.3731 208.791 11.5511C208.606 11.7292 208.382 11.8182 208.121 11.8182ZM213.827 22.2045C213.274 22.2045 212.772 22.1004 212.321 21.892C211.87 21.6799 211.512 21.375 211.247 20.9773C210.982 20.5758 210.849 20.0909 210.849 19.5227C210.849 19.0227 210.948 18.6174 211.145 18.3068C211.342 17.9924 211.605 17.7462 211.935 17.5682C212.264 17.3902 212.628 17.2576 213.026 17.1705C213.427 17.0795 213.83 17.0076 214.236 16.9545C214.766 16.8864 215.196 16.8352 215.526 16.8011C215.859 16.7633 216.101 16.7008 216.253 16.6136C216.408 16.5265 216.486 16.375 216.486 16.1591V16.1136C216.486 15.553 216.332 15.1174 216.026 14.8068C215.723 14.4962 215.262 14.3409 214.645 14.3409C214.005 14.3409 213.503 14.4811 213.139 14.7614C212.776 15.0417 212.52 15.3409 212.372 15.6591L211.099 15.2045C211.327 14.6742 211.63 14.2614 212.009 13.9659C212.391 13.6667 212.808 13.4583 213.259 13.3409C213.713 13.2197 214.16 13.1591 214.599 13.1591C214.88 13.1591 215.202 13.1932 215.565 13.2614C215.933 13.3258 216.287 13.4602 216.628 13.6648C216.973 13.8693 217.259 14.178 217.486 14.5909C217.713 15.0038 217.827 15.5568 217.827 16.25V22H216.486V20.8182H216.418C216.327 21.0076 216.175 21.2102 215.963 21.4261C215.751 21.642 215.469 21.8258 215.116 21.9773C214.764 22.1288 214.334 22.2045 213.827 22.2045ZM214.031 21C214.562 21 215.009 20.8958 215.372 20.6875C215.74 20.4792 216.016 20.2102 216.202 19.8807C216.391 19.5511 216.486 19.2045 216.486 18.8409V17.6136C216.429 17.6818 216.304 17.7443 216.111 17.8011C215.921 17.8542 215.702 17.9015 215.452 17.9432C215.205 17.9811 214.965 18.0152 214.73 18.0455C214.499 18.072 214.312 18.0947 214.168 18.1136C213.819 18.1591 213.493 18.233 213.19 18.3352C212.891 18.4337 212.649 18.5833 212.463 18.7841C212.281 18.9811 212.19 19.25 212.19 19.5909C212.19 20.0568 212.363 20.4091 212.707 20.6477C213.056 20.8826 213.497 21 214.031 21ZM214.077 12.0909L215.463 9.45455H217.031L215.259 12.0909H214.077ZM221.615 16.75V22H220.274V13.2727H221.57V14.6364H221.683C221.888 14.1932 222.198 13.8371 222.615 13.5682C223.032 13.2955 223.57 13.1591 224.229 13.1591C224.82 13.1591 225.337 13.2803 225.78 13.5227C226.223 13.7614 226.568 14.125 226.814 14.6136C227.06 15.0985 227.183 15.7121 227.183 16.4545V22H225.842V16.5455C225.842 15.8598 225.664 15.3258 225.308 14.9432C224.952 14.5568 224.464 14.3636 223.842 14.3636C223.414 14.3636 223.032 14.4564 222.695 14.642C222.361 14.8277 222.098 15.0985 221.905 15.4545C221.712 15.8106 221.615 16.2424 221.615 16.75ZM230.974 10.3636V22H229.634V10.3636H230.974ZM235.999 22.2045C235.446 22.2045 234.944 22.1004 234.493 21.892C234.042 21.6799 233.684 21.375 233.419 20.9773C233.154 20.5758 233.021 20.0909 233.021 19.5227C233.021 19.0227 233.12 18.6174 233.317 18.3068C233.514 17.9924 233.777 17.7462 234.107 17.5682C234.436 17.3902 234.8 17.2576 235.197 17.1705C235.599 17.0795 236.002 17.0076 236.408 16.9545C236.938 16.8864 237.368 16.8352 237.697 16.8011C238.031 16.7633 238.273 16.7008 238.425 16.6136C238.58 16.5265 238.658 16.375 238.658 16.1591V16.1136C238.658 15.553 238.504 15.1174 238.197 14.8068C237.894 14.4962 237.434 14.3409 236.817 14.3409C236.177 14.3409 235.675 14.4811 235.311 14.7614C234.947 15.0417 234.692 15.3409 234.544 15.6591L233.271 15.2045C233.499 14.6742 233.802 14.2614 234.18 13.9659C234.563 13.6667 234.98 13.4583 235.43 13.3409C235.885 13.2197 236.332 13.1591 236.771 13.1591C237.052 13.1591 237.374 13.1932 237.737 13.2614C238.105 13.3258 238.459 13.4602 238.8 13.6648C239.144 13.8693 239.43 14.178 239.658 14.5909C239.885 15.0038 239.999 15.5568 239.999 16.25V22H238.658V20.8182H238.589C238.499 21.0076 238.347 21.2102 238.135 21.4261C237.923 21.642 237.641 21.8258 237.288 21.9773C236.936 22.1288 236.506 22.2045 235.999 22.2045ZM236.203 21C236.733 21 237.18 20.8958 237.544 20.6875C237.911 20.4792 238.188 20.2102 238.374 19.8807C238.563 19.5511 238.658 19.2045 238.658 18.8409V17.6136C238.601 17.6818 238.476 17.7443 238.283 17.8011C238.093 17.8542 237.874 17.9015 237.624 17.9432C237.377 17.9811 237.137 18.0152 236.902 18.0455C236.671 18.072 236.483 18.0947 236.339 18.1136C235.991 18.1591 235.665 18.233 235.362 18.3352C235.063 18.4337 234.821 18.5833 234.635 18.7841C234.453 18.9811 234.362 19.25 234.362 19.5909C234.362 20.0568 234.535 20.4091 234.879 20.6477C235.228 20.8826 235.669 21 236.203 21ZM236.249 12.0909L237.635 9.45455H239.203L237.43 12.0909H236.249ZM248.628 15.2273L247.423 15.5682C247.348 15.3674 247.236 15.1723 247.088 14.983C246.944 14.7898 246.747 14.6307 246.497 14.5057C246.247 14.3807 245.927 14.3182 245.537 14.3182C245.003 14.3182 244.558 14.4413 244.202 14.6875C243.849 14.9299 243.673 15.2386 243.673 15.6136C243.673 15.947 243.795 16.2102 244.037 16.4034C244.279 16.5966 244.658 16.7576 245.173 16.8864L246.469 17.2045C247.249 17.3939 247.83 17.6837 248.213 18.0739C248.596 18.4602 248.787 18.9583 248.787 19.5682C248.787 20.0682 248.643 20.5152 248.355 20.9091C248.071 21.303 247.673 21.6136 247.162 21.8409C246.651 22.0682 246.056 22.1818 245.378 22.1818C244.488 22.1818 243.751 21.9886 243.168 21.6023C242.584 21.2159 242.215 20.6515 242.06 19.9091L243.332 19.5909C243.454 20.0606 243.683 20.4129 244.02 20.6477C244.361 20.8826 244.806 21 245.355 21C245.98 21 246.476 20.8674 246.844 20.6023C247.215 20.3333 247.401 20.0114 247.401 19.6364C247.401 19.3333 247.295 19.0795 247.082 18.875C246.87 18.6667 246.545 18.5114 246.105 18.4091L244.651 18.0682C243.851 17.8788 243.264 17.5852 242.889 17.1875C242.518 16.786 242.332 16.2841 242.332 15.6818C242.332 15.1894 242.471 14.7538 242.747 14.375C243.027 13.9962 243.408 13.6989 243.889 13.483C244.374 13.267 244.923 13.1591 245.537 13.1591C246.401 13.1591 247.079 13.3485 247.571 13.7273C248.067 14.1061 248.42 14.6061 248.628 15.2273Z" fill="black"/>
<defs>
<clipPath id="clip0_1154_3242">
<rect width="416" height="32" fill="white"/>
</clipPath>
<clipPath id="clip1_1154_3242">
<rect width="719.007" height="31.9997" fill="white"/>
</clipPath>
</defs>
</svg>
