<svg width="272" height="32" viewBox="0 0 272 32" fill="none" xmlns="http://www.w3.org/2000/svg">
<g clip-path="url(#clip0_793_2170)">
<rect width="615" height="32" fill="white"/>
<path d="M134.477 -0.0527344L115.227 32.1877H153.727L134.477 -0.0527344Z" fill="white"/>
<path d="M288.363 -0.0527344L269.114 32.1877H307.613L288.363 -0.0527344Z" fill="white"/>
<path d="M18.9793 -0.0527344L38.2291 32.1877H-0.270508L18.9793 -0.0527344Z" fill="#1A1A1A"/>
<path d="M172.976 -0.0527344L192.226 32.1877H153.727L172.976 -0.0527344Z" fill="#1A1A1A"/>
<path d="M153.729 32.1885L134.479 -0.0519867L172.979 -0.0519867L153.729 32.1885Z" fill="black"/>
<path d="M0.250208 32.1885L-18.9996 -0.0519867L19.5 -0.0519867L0.250208 32.1885Z" fill="black"/>
<path d="M76.7277 32.1885L57.478 -0.0519867L95.9775 -0.0519867L76.7277 32.1885Z" fill="#4C9D34"/>
<path d="M230.726 32.1885L211.476 -0.0519867L249.976 -0.0519867L230.726 32.1885Z" fill="#4C9D34"/>
<path d="M115.227 32.1885L134.477 -0.0519867L95.9775 -0.0519867L115.227 32.1885Z" fill="#E5E5E5"/>
<path d="M269.114 32.1885L288.364 -0.0519867L249.864 -0.0519867L269.114 32.1885Z" fill="#E5E5E5"/>
<path d="M38.2287 32.1885L18.9789 -0.0519867L57.4785 -0.0519867L38.2287 32.1885Z" fill="#1A7547"/>
<path d="M192.227 32.1885L172.977 -0.0519867L211.477 -0.0519867L192.227 32.1885Z" fill="#1A7547"/>
<path d="M95.9793 -0.0527344L115.229 32.1877H76.7295L95.9793 -0.0527344Z" fill="#55AE3A"/>
<path d="M249.976 -0.0527344L269.226 32.1877H230.727L249.976 -0.0527344Z" fill="#55AE3A"/>
<path d="M57.4793 -0.0527344L76.7291 32.1877H38.2295L57.4793 -0.0527344Z" fill="#006633"/>
<path d="M211.478 -0.0527344L230.728 32.1877H192.229L211.478 -0.0527344Z" fill="#006633"/>
<rect width="615" height="32" fill="#006633" fill-opacity="0.8"/>
</g>
<defs>
<clipPath id="clip0_793_2170">
<rect width="615" height="32" fill="white"/>
</clipPath>
</defs>
</svg>
